# xmcd
#
# Track frame offsets:
#	150
#	8255
#	15349
#	21098
#	28580
#	36525
#	40974
#	46707
#	54762
#	61972
#	68220
#	73478
#	78279
#	85270
#	91957
#	99761
#	106410
#	114243
#	121991
#	129210
#	134063
#	140008
#	146203
#	151619
#	158778
#	166417
#	172496
#	179779
#	187655
#	192151
#	198683
#	206621
#	214235
#	220107
#	225001
#	232882
#	240907
#	249399
#	255618
#	263089
#	269839
#	276925
#	284501
#	291390
#	298986
#	305776
#	311506
#	319097
#
# Disc length: 4368 seconds
#
# Revision: 0
# Processed by: cddbd v1.5.2PL0 Copyright (c) Steve Scherf et al.
# Submitted via: audiograbber 1.83.01
#
DISCID=bf110e30
DTITLE=DJ Maurice - Apres Ski Safari 11
DYEAR=2012
DGENRE=Party
TTITLE0=Jan Smit - Hitmix (Dj Maurice Party Refix)
TTITLE1=Feestteam - Ik Neem Je Mee
TTITLE2=Gerst - Ik Laat Je Thuis
TTITLE3=Ronnie Ruysdael - Dikke Doe Da
TTITLE4=69 Lovers - Think
TTITLE5=RLP and Babara Tucker - Respect
TTITLE6=DJ Otzi - I Sing A Liad Fur Dich
TTITLE7=Stefan Storm - Ik Versier Je Niet (DJ Maurice rmx)
TTITLE8=Marianne Weber - Alles Gaat Zijn Gangetje
TTITLE9=Alpenzusjes - Hutje op de hei
TTITLE10=Tom Haver - Samen vanavond
TTITLE11=Jeronimo - I want you baby
TTITLE12=Wesly Bronkhorst - Wy
TTITLE13=MR. Polska - Vinger Op De Klitter
TTITLE14=Team Rush - De Club loopt Vol
TTITLE15=Los del Rio - Macarena (Funk D Bootleg)
TTITLE16=Zware Jongens - Jodeljump (Brainless and DJ Maurice edit)
TTITLE17=Don Lore V - Danza Kuduro
TTITLE18=Rob Ronalds - Gloria
TTITLE19=Leo Nardell - Zai Zai Zai
TTITLE20=Ronnie van Bemmel - Ay Ay Ay
TTITLE21=Wannabiez - Batje Vier
TTITLE22=Sjon and Sjeffrie - De Eskimo
TTITLE23=Dikdakkers - Oef!
TTITLE24=Johnny Gold - Hajo Hajo
TTITLE25=Arjon - Zakka Zakka
TTITLE26=Lawineboys - Joost
TTITLE27=Gerard Berndsen - Skien Aan De Costa (Dj Maurice remix)
TTITLE28=Sjonnies - Smurfenlied
TTITLE29=Pitaboys - Waar is dat feestje
TTITLE30=DJ Maurice ft Jerry G - Sex on Fire
TTITLE31=Alle 13 Jaanke - Orchidee
TTITLE32=Hike ft DJ Maurice - Lekker In De Sneeuw
TTITLE33=Stef Ekkel - Op De Lange Latten
TTITLE34=Wesley Ponsen - Laat Mij Maar Gaan
TTITLE35=Danny Panadero - Skiejuh
TTITLE36=DJ Maurice ft Kleintje Pils - Alte Dessaur (zakken!)
TTITLE37=Santa Rosa - Holladijee
TTITLE38=Andre Hazes - We Gaan Gezellig Naar De Kroeg
TTITLE39=Albert casanova - Hoedjesdans
TTITLE40=Jack Kunkels - Laat De Lampen Nu Maar Zwaaien
TTITLE41=Rene Karst  - Op De Tafel Dansen
TTITLE42=Dj Bas.eu - Bonnie Kom Je Buiten Spelen
TTITLE43=Justin Vino ft Nicole Tyler - So Real
TTITLE44=Swedish House Mafia - Save The World
TTITLE45=Elvis Presley - Fever (Spancox Remix)
TTITLE46=DJ Arnoud ft Rob de Nijs - Zondag
TTITLE47=Eric Dikeb - Pizzahut (fastfood song) 2011
EXTD=
EXTT0=
EXTT1=
EXTT2=
EXTT3=
EXTT4=
EXTT5=
EXTT6=
EXTT7=
EXTT8=
EXTT9=
EXTT10=
EXTT11=
EXTT12=
EXTT13=
EXTT14=
EXTT15=
EXTT16=
EXTT17=
EXTT18=
EXTT19=
EXTT20=
EXTT21=
EXTT22=
EXTT23=
EXTT24=
EXTT25=
EXTT26=
EXTT27=
EXTT28=
EXTT29=
EXTT30=
EXTT31=
EXTT32=
EXTT33=
EXTT34=
EXTT35=
EXTT36=
EXTT37=
EXTT38=
EXTT39=
EXTT40=
EXTT41=
EXTT42=
EXTT43=
EXTT44=
EXTT45=
EXTT46=
EXTT47=
PLAYORDER=
